<?xml version="1.0" encoding="utf-8" standalone="no"?>
<!DOCTYPE svg PUBLIC "-//W3C//DTD SVG 1.1//EN"
  "http://www.w3.org/Graphics/SVG/1.1/DTD/svg11.dtd">
<svg height="149.38pt" version="1.1" viewBox="0 0 418.8198 149.38" width="418.8198pt" xmlns="http://www.w3.org/2000/svg" xmlns:xlink="http://www.w3.org/1999/xlink">
 <metadata>
  <rdf:RDF xmlns:cc="http://creativecommons.org/ns#" xmlns:dc="http://purl.org/dc/elements/1.1/" xmlns:rdf="http://www.w3.org/1999/02/22-rdf-syntax-ns#">
   <cc:Work>
    <dc:type rdf:resource="http://purl.org/dc/dcmitype/StillImage"/>
    <dc:date>2021-10-20T16:11:31.127216</dc:date>
    <dc:format>image/svg+xml</dc:format>
    <dc:creator>
     <cc:Agent>
      <dc:title>Matplotlib v3.4.3, https://matplotlib.org/</dc:title>
     </cc:Agent>
    </dc:creator>
   </cc:Work>
  </rdf:RDF>
 </metadata>
 <defs>
  <style type="text/css">*{stroke-linecap:butt;stroke-linejoin:round;}</style>
 </defs>
 <g id="figure_1">
  <g id="patch_1">
   <path d="M 0 149.38 
L 418.8198 149.38 
L 418.8198 0 
L 0 0 
z
" style="fill:none;"/>
  </g>
  <g id="axes_1">
   <g id="patch_2">
    <path clip-path="url(#pbe3948faa4)" d="M 91.7784 32.02 
L 100.9584 35.08 
L 91.7784 38.14 
z
"/>
   </g>
   <g id="patch_3">
    <path clip-path="url(#pbe3948faa4)" d="M 211.1184 94.75 
L 208.0584 100.87 
L 204.9984 94.75 
z
"/>
   </g>
   <g id="patch_4">
    <path clip-path="url(#pbe3948faa4)" d="M 324.3384 38.14 
L 315.1584 35.08 
L 324.3384 32.02 
z
"/>
   </g>
   <g id="line2d_1">
    <path clip-path="url(#pbe3948faa4)" d="M 24.4584 47.32 
L 55.0584 47.32 
L 57.6084 39.67 
L 62.7084 54.97 
L 67.8084 39.67 
L 72.9084 54.97 
L 78.0084 39.67 
L 83.1084 54.97 
L 85.6584 47.32 
L 116.2584 47.32 
" style="fill:none;stroke:#000000;stroke-linecap:round;stroke-width:2;"/>
   </g>
   <g id="line2d_2">
    <path clip-path="url(#pbe3948faa4)" d="M 39.7584 35.08 
L 91.7784 35.08 
" style="fill:none;stroke:#000000;stroke-linecap:square;stroke-width:2;"/>
   </g>
   <g id="line2d_3">
    <path clip-path="url(#pbe3948faa4)" d="M 116.2584 47.32 
L 116.2584 77.92 
M 116.2584 108.52 
L 100.9584 93.22 
L 116.2584 77.92 
L 131.5584 93.22 
L 116.2584 108.52 
L 116.2584 139.12 
" style="fill:none;stroke:#000000;stroke-linecap:round;stroke-width:2;"/>
   </g>
   <g id="line2d_4">
    <path clip-path="url(#pbe3948faa4)" d="M 119.3184 100.87 
L 113.1984 100.87 
" style="fill:none;stroke:#000000;stroke-linecap:round;stroke-width:2;"/>
   </g>
   <g id="line2d_5">
    <path clip-path="url(#pbe3948faa4)" d="M 116.2584 82.51 
L 116.2584 88.63 
" style="fill:none;stroke:#000000;stroke-linecap:round;stroke-width:2;"/>
   </g>
   <g id="line2d_6">
    <path clip-path="url(#pbe3948faa4)" d="M 119.3184 85.57 
L 113.1984 85.57 
" style="fill:none;stroke:#000000;stroke-linecap:round;stroke-width:2;"/>
   </g>
   <g id="line2d_7">
    <path clip-path="url(#pbe3948faa4)" d="M 116.2584 139.12 
L 70.3584 139.12 
L 24.4584 139.12 
" style="fill:none;stroke:#000000;stroke-linecap:round;stroke-width:2;"/>
   </g>
   <g id="line2d_8">
    <path clip-path="url(#pbe3948faa4)" d="M 116.2584 139.12 
L 162.1584 139.12 
L 208.0584 139.12 
" style="fill:none;stroke:#000000;stroke-linecap:round;stroke-width:2;"/>
   </g>
   <g id="line2d_9">
    <path clip-path="url(#pbe3948faa4)" d="M 208.0584 139.12 
L 208.0584 108.52 
M 208.0584 77.92 
L 223.3584 93.22 
L 208.0584 108.52 
L 192.7584 93.22 
L 208.0584 77.92 
L 208.0584 47.32 
" style="fill:none;stroke:#000000;stroke-linecap:round;stroke-width:2;"/>
   </g>
   <g id="line2d_10">
    <path clip-path="url(#pbe3948faa4)" d="M 208.0584 85.57 
L 208.0584 94.75 
" style="fill:none;stroke:#000000;stroke-linecap:square;stroke-width:2;"/>
   </g>
   <g id="line2d_11">
    <path clip-path="url(#pbe3948faa4)" d="M 208.0584 47.32 
L 253.9584 47.32 
L 299.8584 47.32 
" style="fill:none;stroke:#000000;stroke-linecap:round;stroke-width:2;"/>
   </g>
   <g id="line2d_12">
    <path clip-path="url(#pbe3948faa4)" d="M 299.8584 47.32 
L 345.7584 47.32 
L 391.6584 47.32 
" style="fill:none;stroke:#000000;stroke-linecap:round;stroke-width:2;"/>
   </g>
   <g id="line2d_13">
    <path clip-path="url(#pbe3948faa4)" d="M 376.3584 35.08 
L 324.3384 35.08 
" style="fill:none;stroke:#000000;stroke-linecap:square;stroke-width:2;"/>
   </g>
   <g id="line2d_14">
    <path clip-path="url(#pbe3948faa4)" d="M 299.8584 47.32 
L 299.8584 77.92 
L 307.5084 80.47 
L 292.2084 85.57 
L 307.5084 90.67 
L 292.2084 95.77 
L 307.5084 100.87 
L 292.2084 105.97 
L 299.8584 108.52 
L 299.8584 139.12 
" style="fill:none;stroke:#000000;stroke-linecap:round;stroke-width:2;"/>
   </g>
   <g id="line2d_15">
    <path clip-path="url(#pbe3948faa4)" d="M 299.8584 139.12 
L 253.9584 139.12 
L 208.0584 139.12 
" style="fill:none;stroke:#000000;stroke-linecap:round;stroke-width:2;"/>
   </g>
   <g id="line2d_16">
    <path clip-path="url(#pbe3948faa4)" d="M 299.8584 139.12 
L 345.7584 139.12 
L 391.6584 139.12 
" style="fill:none;stroke:#000000;stroke-linecap:round;stroke-width:2;"/>
   </g>
   <g id="text_1">
    <!-- + -->
    <g transform="translate(18.592619 74.133125)scale(0.14 -0.14)">
     <defs>
      <path d="M 2944 4013 
L 2944 2272 
L 4684 2272 
L 4684 1741 
L 2944 1741 
L 2944 0 
L 2419 0 
L 2419 1741 
L 678 1741 
L 678 2272 
L 2419 2272 
L 2419 4013 
L 2944 4013 
z
" id="DejaVuSans-2b" transform="scale(0.015625)"/>
     </defs>
     <use xlink:href="#DejaVuSans-2b"/>
    </g>
   </g>
   <g id="text_2">
    <!-- $v_{be}$ -->
    <g transform="translate(13.9584 97.083125)scale(0.14 -0.14)">
     <defs>
      <path d="M 459 3500 
L 1069 3500 
L 1581 525 
L 3256 3500 
L 3866 3500 
L 1875 0 
L 1100 0 
L 459 3500 
z
" id="DejaVuSans-Oblique-76" transform="scale(0.015625)"/>
      <path d="M 3169 2138 
Q 3169 2591 2961 2847 
Q 2753 3103 2388 3103 
Q 2122 3103 1889 2973 
Q 1656 2844 1484 2597 
Q 1303 2338 1198 1995 
Q 1094 1653 1094 1313 
Q 1094 881 1298 636 
Q 1503 391 1863 391 
Q 2134 391 2365 517 
Q 2597 644 2772 891 
Q 2950 1147 3059 1487 
Q 3169 1828 3169 2138 
z
M 1381 2969 
Q 1594 3256 1914 3420 
Q 2234 3584 2584 3584 
Q 3122 3584 3439 3221 
Q 3756 2859 3756 2241 
Q 3756 1734 3570 1259 
Q 3384 784 3041 416 
Q 2816 172 2522 40 
Q 2228 -91 1906 -91 
Q 1566 -91 1316 65 
Q 1066 222 909 531 
L 806 0 
L 231 0 
L 1178 4863 
L 1753 4863 
L 1381 2969 
z
" id="DejaVuSans-Oblique-62" transform="scale(0.015625)"/>
      <path d="M 3078 2063 
Q 3088 2113 3092 2166 
Q 3097 2219 3097 2272 
Q 3097 2653 2873 2875 
Q 2650 3097 2266 3097 
Q 1838 3097 1509 2826 
Q 1181 2556 1013 2059 
L 3078 2063 
z
M 3578 1613 
L 903 1613 
Q 884 1494 878 1425 
Q 872 1356 872 1306 
Q 872 872 1139 634 
Q 1406 397 1894 397 
Q 2269 397 2603 481 
Q 2938 566 3225 728 
L 3116 159 
Q 2806 34 2476 -28 
Q 2147 -91 1806 -91 
Q 1078 -91 686 257 
Q 294 606 294 1247 
Q 294 1794 489 2264 
Q 684 2734 1063 3103 
Q 1306 3334 1642 3459 
Q 1978 3584 2356 3584 
Q 2950 3584 3301 3228 
Q 3653 2872 3653 2272 
Q 3653 2128 3634 1964 
Q 3616 1800 3578 1613 
z
" id="DejaVuSans-Oblique-65" transform="scale(0.015625)"/>
     </defs>
     <use transform="translate(0 0.3125)" xlink:href="#DejaVuSans-Oblique-76"/>
     <use transform="translate(59.179688 -16.09375)scale(0.7)" xlink:href="#DejaVuSans-Oblique-62"/>
     <use transform="translate(103.613281 -16.09375)scale(0.7)" xlink:href="#DejaVuSans-Oblique-65"/>
    </g>
   </g>
   <g id="text_3">
    <!-- – -->
    <g transform="translate(20.9584 120.033125)scale(0.14 -0.14)">
     <defs>
      <path d="M 313 1978 
L 2888 1978 
L 2888 1528 
L 313 1528 
L 313 1978 
z
" id="DejaVuSans-2013" transform="scale(0.015625)"/>
     </defs>
     <use xlink:href="#DejaVuSans-2013"/>
    </g>
   </g>
   <g id="text_4">
    <!-- $ h_{ie} $ -->
    <g transform="translate(61.3284 68.667812)scale(0.14 -0.14)">
     <defs>
      <path d="M 3566 2113 
L 3156 0 
L 2578 0 
L 2988 2091 
Q 3016 2238 3031 2350 
Q 3047 2463 3047 2528 
Q 3047 2791 2881 2937 
Q 2716 3084 2419 3084 
Q 1956 3084 1617 2771 
Q 1278 2459 1178 1941 
L 800 0 
L 225 0 
L 1172 4863 
L 1747 4863 
L 1375 2950 
Q 1594 3244 1934 3414 
Q 2275 3584 2650 3584 
Q 3113 3584 3367 3334 
Q 3622 3084 3622 2631 
Q 3622 2519 3608 2391 
Q 3594 2263 3566 2113 
z
" id="DejaVuSans-Oblique-68" transform="scale(0.015625)"/>
      <path d="M 1172 4863 
L 1747 4863 
L 1606 4134 
L 1031 4134 
L 1172 4863 
z
M 909 3500 
L 1484 3500 
L 800 0 
L 225 0 
L 909 3500 
z
" id="DejaVuSans-Oblique-69" transform="scale(0.015625)"/>
     </defs>
     <use transform="translate(0 0.015625)" xlink:href="#DejaVuSans-Oblique-68"/>
     <use transform="translate(63.378906 -16.390625)scale(0.7)" xlink:href="#DejaVuSans-Oblique-69"/>
     <use transform="translate(82.827148 -16.390625)scale(0.7)" xlink:href="#DejaVuSans-Oblique-65"/>
    </g>
   </g>
   <g id="text_5">
    <!-- $i_b $ -->
    <g transform="translate(65.1084 22.988437)scale(0.14 -0.14)">
     <use transform="translate(0 0.015625)" xlink:href="#DejaVuSans-Oblique-69"/>
     <use transform="translate(27.783203 -16.390625)scale(0.7)" xlink:href="#DejaVuSans-Oblique-62"/>
    </g>
   </g>
   <g id="text_6">
    <!-- $ h_{re} v_{ce} $ -->
    <g transform="translate(134.6184 97.083125)scale(0.14 -0.14)">
     <defs>
      <path d="M 2853 2969 
Q 2766 3016 2653 3041 
Q 2541 3066 2413 3066 
Q 1953 3066 1609 2717 
Q 1266 2369 1153 1784 
L 800 0 
L 225 0 
L 909 3500 
L 1484 3500 
L 1375 2956 
Q 1603 3259 1920 3421 
Q 2238 3584 2597 3584 
Q 2691 3584 2781 3573 
Q 2872 3563 2963 3538 
L 2853 2969 
z
" id="DejaVuSans-Oblique-72" transform="scale(0.015625)"/>
      <path d="M 3431 3366 
L 3316 2797 
Q 3109 2947 2876 3022 
Q 2644 3097 2394 3097 
Q 2119 3097 1870 3000 
Q 1622 2903 1453 2725 
Q 1184 2453 1037 2087 
Q 891 1722 891 1331 
Q 891 859 1127 628 
Q 1363 397 1844 397 
Q 2081 397 2348 469 
Q 2616 541 2906 684 
L 2797 116 
Q 2547 13 2283 -39 
Q 2019 -91 1741 -91 
Q 1044 -91 669 257 
Q 294 606 294 1253 
Q 294 1797 489 2255 
Q 684 2713 1069 3078 
Q 1331 3328 1684 3456 
Q 2038 3584 2456 3584 
Q 2700 3584 2940 3529 
Q 3181 3475 3431 3366 
z
" id="DejaVuSans-Oblique-63" transform="scale(0.015625)"/>
     </defs>
     <use transform="translate(0 0.015625)" xlink:href="#DejaVuSans-Oblique-68"/>
     <use transform="translate(63.378906 -16.390625)scale(0.7)" xlink:href="#DejaVuSans-Oblique-72"/>
     <use transform="translate(92.158203 -16.390625)scale(0.7)" xlink:href="#DejaVuSans-Oblique-65"/>
     <use transform="translate(137.958984 0.015625)" xlink:href="#DejaVuSans-Oblique-76"/>
     <use transform="translate(197.138672 -16.390625)scale(0.7)" xlink:href="#DejaVuSans-Oblique-63"/>
     <use transform="translate(235.625 -16.390625)scale(0.7)" xlink:href="#DejaVuSans-Oblique-65"/>
    </g>
   </g>
   <g id="text_7">
    <!-- $ h_{fe} i_b $ -->
    <g transform="translate(226.4184 97.083125)scale(0.14 -0.14)">
     <defs>
      <path d="M 3059 4863 
L 2969 4384 
L 2419 4384 
Q 2106 4384 1964 4261 
Q 1822 4138 1753 3809 
L 1691 3500 
L 2638 3500 
L 2553 3053 
L 1606 3053 
L 1013 0 
L 434 0 
L 1031 3053 
L 481 3053 
L 563 3500 
L 1113 3500 
L 1159 3744 
Q 1278 4363 1576 4613 
Q 1875 4863 2516 4863 
L 3059 4863 
z
" id="DejaVuSans-Oblique-66" transform="scale(0.015625)"/>
     </defs>
     <use transform="translate(0 0.015625)" xlink:href="#DejaVuSans-Oblique-68"/>
     <use transform="translate(63.378906 -16.390625)scale(0.7)" xlink:href="#DejaVuSans-Oblique-66"/>
     <use transform="translate(88.022461 -16.390625)scale(0.7)" xlink:href="#DejaVuSans-Oblique-65"/>
     <use transform="translate(133.823242 0.015625)" xlink:href="#DejaVuSans-Oblique-69"/>
     <use transform="translate(161.606445 -16.390625)scale(0.7)" xlink:href="#DejaVuSans-Oblique-62"/>
    </g>
   </g>
   <g id="text_8">
    <!-- $i_c$ -->
    <g transform="translate(340.8584 22.988437)scale(0.14 -0.14)">
     <use transform="translate(0 0.015625)" xlink:href="#DejaVuSans-Oblique-69"/>
     <use transform="translate(27.783203 -16.390625)scale(0.7)" xlink:href="#DejaVuSans-Oblique-63"/>
    </g>
   </g>
   <g id="text_9">
    <!-- + -->
    <g transform="translate(385.792619 74.133125)scale(0.14 -0.14)">
     <use xlink:href="#DejaVuSans-2b"/>
    </g>
   </g>
   <g id="text_10">
    <!-- $v_{ce}$ -->
    <g transform="translate(381.5784 97.083125)scale(0.14 -0.14)">
     <use transform="translate(0 0.3125)" xlink:href="#DejaVuSans-Oblique-76"/>
     <use transform="translate(59.179688 -16.09375)scale(0.7)" xlink:href="#DejaVuSans-Oblique-63"/>
     <use transform="translate(97.666016 -16.09375)scale(0.7)" xlink:href="#DejaVuSans-Oblique-65"/>
    </g>
   </g>
   <g id="text_11">
    <!-- – -->
    <g transform="translate(388.1584 120.033125)scale(0.14 -0.14)">
     <use xlink:href="#DejaVuSans-2013"/>
    </g>
   </g>
   <g id="text_12">
    <!-- $ \dfrac{1}{h_{oe}} $ -->
    <g transform="translate(310.5684 95.74)scale(0.14 -0.14)">
     <defs>
      <path d="M 794 531 
L 1825 531 
L 1825 4091 
L 703 3866 
L 703 4441 
L 1819 4666 
L 2450 4666 
L 2450 531 
L 3481 531 
L 3481 0 
L 794 0 
L 794 531 
z
" id="DejaVuSans-31" transform="scale(0.015625)"/>
      <path d="M 1625 -91 
Q 1009 -91 651 289 
Q 294 669 294 1325 
Q 294 1706 417 2101 
Q 541 2497 738 2766 
Q 1047 3184 1428 3384 
Q 1809 3584 2291 3584 
Q 2888 3584 3255 3212 
Q 3622 2841 3622 2241 
Q 3622 1825 3500 1412 
Q 3378 1000 3181 728 
Q 2875 309 2494 109 
Q 2113 -91 1625 -91 
z
M 891 1344 
Q 891 869 1089 633 
Q 1288 397 1691 397 
Q 2269 397 2648 901 
Q 3028 1406 3028 2181 
Q 3028 2634 2825 2865 
Q 2622 3097 2228 3097 
Q 1903 3097 1650 2945 
Q 1397 2794 1197 2484 
Q 1050 2253 970 1956 
Q 891 1659 891 1344 
z
" id="DejaVuSans-Oblique-6f" transform="scale(0.015625)"/>
     </defs>
     <use transform="translate(44 44.09375)" xlink:href="#DejaVuSans-31"/>
     <use transform="translate(0 -63.140625)" xlink:href="#DejaVuSans-Oblique-68"/>
     <use transform="translate(63.378906 -79.546875)scale(0.7)" xlink:href="#DejaVuSans-Oblique-6f"/>
     <use transform="translate(106.206055 -79.546875)scale(0.7)" xlink:href="#DejaVuSans-Oblique-65"/>
     <path d="M 0 19.09375 
L 0 25.34375 
L 152.006836 25.34375 
L 152.006836 19.09375 
L 0 19.09375 
z
"/>
    </g>
   </g>
  </g>
 </g>
 <defs>
  <clipPath id="pbe3948faa4">
   <rect height="134.98" width="404.4198" x="7.2" y="7.2"/>
  </clipPath>
 </defs>
</svg>
